<svg id="Layer_1" data-name="Layer 1" xmlns="http://www.w3.org/2000/svg" viewBox="0 0 352.75 352.75"><defs><style>.cls-2{fill:#fff}.cls-3{fill:#231f20}</style></defs><circle cx="179.58" cy="179.56" r="176.37" transform="rotate(-84.52 176.229 179.73)" fill="#ef4136"/><path class="cls-2" d="M120.55 121h111.64v120.36H120.55z"/><path class="cls-3" d="M177.54 208H157.1l6.3-6.53q2.49-2.59 3.9-4.4a23.53 23.53 0 002.11-3 8.42 8.42 0 00.86-2 6.61 6.61 0 00.17-1.32 3.5 3.5 0 00-.19-1.11 2.82 2.82 0 00-1.45-1.64 2.79 2.79 0 00-1.23-.25 2.64 2.64 0 00-2.1.87 3.21 3.21 0 00-.76 2.19 7.75 7.75 0 00.1 1.08h-7.2a10.88 10.88 0 01.72-4 9 9 0 015.15-5.16 10.77 10.77 0 014-.7 11.09 11.09 0 013.92.67 9.45 9.45 0 013.12 1.89 8.51 8.51 0 012.05 2.88 8.83 8.83 0 01.74 3.61 8.49 8.49 0 01-.89 3.86 13.65 13.65 0 01-2.85 3.62l-4.21 3.94h8.22zM201.28 188.21h-8.79l-.44 2.79 1.11-.11a9 9 0 011.05 0 9.34 9.34 0 013.57.67 8.25 8.25 0 014.68 4.68 9.42 9.42 0 01.67 3.6 8.73 8.73 0 01-.76 3.71 7.86 7.86 0 01-2.13 2.81 9.76 9.76 0 01-3.37 1.78 14.59 14.59 0 01-4.41.63 16.75 16.75 0 01-4.36-.56 14.2 14.2 0 01-3.89-1.7l1-6.2a13.42 13.42 0 003.44 2.21 8.33 8.33 0 003.33.76 4.5 4.5 0 003.2-1.1 3.53 3.53 0 001.18-2.71 3.61 3.61 0 00-1.58-3 6.81 6.81 0 00-4.14-1.17 11.44 11.44 0 00-2.36.26 10.63 10.63 0 00-2.39.79l2.11-13.73h13.3z" transform="translate(-3.2 -3.19)"/><path fill="#87d5f4" d="M129.39 130.06h102.8v17.06h-102.8z"/><path class="cls-3" d="M123.76 124.19v120.35H235.4V124.19zm102.8 8.81v17.29h-14v-9.17h-6.63v9.17h-52.68v-9.17h-6.63v9.17h-14V133zm0 102.69h-94v-3.32h94zm-94-10v-68.76h14v9.17h6.63v-9.17h52.66v9.17h6.63v-9.17h14v68.83z" transform="translate(-3.2 -3.19)"/><path class="cls-2" d="M78.07 115.67L53.52 97.24l6.84-9.12c3.28-4.36 7.17-6 11.86-2.5 2.22 1.66 3.47 3.72 3 6.47h.06c3.1-3.18 6.6-2.89 10-.32 5.14 3.86 3.54 9.52.16 14zM68 98.09l.54-.71c1.27-1.69 2.29-3.67.21-5.24-2.25-1.68-3.87.2-5.16 1.93l-.35.46zm10 7.53l.61-.81c1.42-1.89 3.91-5 1.21-7-3-2.22-5 1.16-6.61 3.24l-.49.65zM103.35 87l-5.93 5.33-20.53-22.8 5.94-5.34zM109.15 46.19l8.56-5-3.29 18.7L134 67.25l-8.95 5.18-15.58-6.36h-.07l6.67 11.52-6.91 4-15.34-26.53 6.9-4 6.35 11h.07zM139.78 41l1.41 5 8.65-2.47L151.7 50l-8.65 2.47 1.45 5.09 9.13-2.61 1.85 6.5-16.79 4.81-8.45-29.52L147 31.91l1.86 6.5zM182.81 28.27L195 29.41c6.56.61 10.82 4.08 10.16 11.09-.67 7.22-4.86 10-11.79 9.37l-4.5-.42-.95 10.13-8-.74zM189.45 43l1.33.13c2.88.27 5.72.53 6.07-3.2s-2.27-4.14-5.35-4.43l-1.34-.12zM245 59.16c-3.67 9.23-12.88 13.1-22 9.46s-13.18-12.79-9.51-22c3.44-8.62 13.41-11.66 21.62-8.39s13.31 12.31 9.89 20.93zm-23.85-9.45c-1.95 4.92.25 10 4.67 11.72a8.8 8.8 0 0011.45-5.3c1.57-3.93-.64-9-5.06-10.74s-9.5.39-11.07 4.32zM254.3 77.3L262 83l-4 5.43L243.87 78l18.24-24.69 6.41 4.74zM294.87 106.68c-7.74 6.23-17.66 5.08-23.85-2.59s-5.2-17.61 2.53-23.84c7.23-5.83 17.41-3.58 22.95 3.3s5.59 17.3-1.63 23.13zm-16.14-19.94c-4.12 3.32-4.68 8.79-1.69 12.5a8.81 8.81 0 0012.58 1c3.3-2.66 3.85-8.13.86-11.84s-8.48-4.32-11.75-1.66zM90.11 273.87a8.64 8.64 0 00-1.46-7.64c-2.91-3.92-7.89-4.34-11.71-1.49a8 8 0 00-1.75 11.64 9.17 9.17 0 006.72 3.62l-7.68 5.71a22.77 22.77 0 01-5.35-4.81 17.06 17.06 0 01-3.24-11.94A15 15 0 0172 258a16 16 0 0111.73-3 16.61 16.61 0 0111 6.42 18.63 18.63 0 013.1 6.77zM92.64 296.71l-5 2.91-6.64-5.2 28.17-17 6.88 5.35-9.73 31.34-6.72-5.23 1.7-5.43zm14.15-9.1l-.06-.05-8.61 5.68 5.24 4.08zM126.25 315.87l8.75 3.86-2.73 6.19-16.05-7.09 12.4-28.09 7.3 3.22zM154.9 307.16l-1.06 5 8.81 1.86-1.4 6.61-8.8-1.86-1.09 5.23 9.28 2-1.39 6.61-17.09-3.6 6.32-30 17.1 3.6-1.4 6.62zM171.07 303.76l8-.49 15.73 17.85h.08l-1.14-18.73 8-.49 1.86 30.64-8 .49-15.72-17.89h-.09l1.15 18.77-8 .48zM206.86 300.37l10.56-4.06a15.35 15.35 0 1111 28.66L217.86 329zm16 19.49l1.68-.64c4.44-1.71 7.31-5.6 5.17-11.19-2-5.13-6.46-6.72-11.25-4.88l-1.75.67zM257.15 304l1.57 5.52-6.72 5.11-9.32-31.55 6.91-5.31 27.87 17.32-6.75 5.18-4.83-3zm-5.24-16l-.07.05 3.34 9.76 5.26-4zM300.32 266l-5.95 8-14-1-.05.07 9.45 7.07-4.77 6.35-24.55-18.39 7.14-9.55c3.63-4.86 8.7-6.81 14-2.89 3.4 2.54 4.92 6.62 2.93 10.58zm-24.07 4l.46-.62c1.56-2.08 2.93-4.72.25-6.72s-4.82.05-6.38 2.14l-.46.62zM304.55 254.74l-6.17-3.49a136.31 136.31 0 00.65-132.5l6.2-3.42a143.42 143.42 0 01-.68 139.41zm-249.95 0a143.39 143.39 0 01-.67-139.41l6.2 3.42a136.27 136.27 0 00.64 132.5z" transform="translate(-3.2 -3.19)"/></svg>