<svg width="100" height="100" xmlns="http://www.w3.org/2000/svg"><g fill="none" fill-rule="evenodd"><path d="M100 50c0 27.614-22.386 50-50 50S0 77.614 0 50 22.386 0 50 0s50 22.386 50 50" fill="#DD4F41"/><path d="M22.29 29.618l.311-.455c.357-.52.545-.94.566-1.257.02-.316-.118-.576-.414-.779-.296-.202-.587-.236-.876-.102-.287.134-.61.461-.966.982l-.31.455 1.69 1.156zm-3.232-2.211l.26-.38c.443-.649.408-1.149-.107-1.5-.514-.352-.993-.204-1.436.444l-.26.38 1.543 1.056zm-4.544-.068l2.11-3.085c.5-.733 1.057-1.169 1.67-1.308.612-.14 1.25.017 1.912.47.401.274.684.574.85.899.165.325.238.698.219 1.12.259-.258.517-.45.776-.58.258-.127.516-.2.774-.214.258-.014.512.022.762.11.25.089.495.215.734.378.374.256.66.547.86.875.2.328.317.677.353 1.048.036.371-.013.759-.145 1.165-.133.405-.344.82-.633 1.242l-2.276 3.328-7.966-5.448zM22.591 17.397l6.733 6.915-1.797 1.75-6.733-6.915zM29.522 16.974l.52-4.993 2.64-1.623-.868 5.898 6.227 2.136-2.77 1.703L30.3 18.24l2.192 3.565-2.137 1.314-5.055-8.221 2.138-1.314zM41.79 9.655l-2.857.854.462 1.545 2.698-.806.608 2.036-2.698.806.477 1.595 2.857-.854.608 2.036-5.26 1.572-2.764-9.247 5.262-1.573zM52.182 11.194l.83.064c.918.072 1.409-.293 1.47-1.092.062-.8-.366-1.236-1.285-1.307l-.83-.064-.185 2.4zm-.403 5.207l-2.501-.193.744-9.623 3.982.308c1.08.084 1.886.429 2.417 1.035.53.606.757 1.419.678 2.44-.08 1.02-.428 1.79-1.045 2.307-.618.517-1.467.734-2.548.65l-1.48-.114-.247 3.19zM61.168 13.155a2.57 2.57 0 00-.198 1.066 2.653 2.653 0 00.819 1.845c.254.246.552.438.892.576a2.765 2.765 0 002.057.02 2.571 2.571 0 001.47-1.461c.145-.355.21-.71.199-1.066a2.641 2.641 0 00-.234-1.007 2.767 2.767 0 00-1.489-1.42 2.767 2.767 0 00-1.04-.208 2.662 2.662 0 00-1.874.752 2.568 2.568 0 00-.602.903m-2.43-.987a5.039 5.039 0 011.12-1.707 4.994 4.994 0 011.63-1.086 5.03 5.03 0 011.966-.37 5.779 5.779 0 012.145.45c.72.293 1.335.683 1.846 1.171.51.489.899 1.035 1.164 1.64.266.606.404 1.245.417 1.917a5.045 5.045 0 01-.386 2.006 5.04 5.04 0 01-1.122 1.706 4.952 4.952 0 01-1.635 1.084 5.086 5.086 0 01-1.978.364 5.79 5.79 0 01-2.14-.447 5.777 5.777 0 01-1.85-1.174 5.025 5.025 0 01-1.153-1.635 4.992 4.992 0 01-.41-1.914 5.037 5.037 0 01.385-2.005M75.41 15.463l-4.633 5.931 2.37 1.852-1.308 1.675-4.347-3.397 5.941-7.605zM77.575 24.038c-.31.228-.552.496-.727.805a2.674 2.674 0 00-.269 2c.088.343.241.663.459.958a2.76 2.76 0 001.741 1.095c.342.061.686.054 1.033-.021.348-.075.676-.227.986-.454.309-.227.551-.496.726-.805.176-.308.285-.635.328-.98a2.762 2.762 0 00-.525-1.99 2.758 2.758 0 00-.777-.722 2.663 2.663 0 00-1.99-.34 2.571 2.571 0 00-.985.454m-1.554-2.114a5.038 5.038 0 011.849-.867 4.994 4.994 0 011.957-.072 5.03 5.03 0 011.868.715 5.78 5.78 0 011.592 1.507c.46.625.78 1.28.96 1.964.179.683.223 1.352.132 2.007a4.96 4.96 0 01-.648 1.851 5.046 5.046 0 01-1.38 1.506 5.045 5.045 0 01-1.848.867 4.95 4.95 0 01-3.837-.659 5.794 5.794 0 01-1.588-1.501 5.77 5.77 0 01-.963-1.969 5.024 5.024 0 01-.126-1.997c.094-.651.311-1.266.653-1.846a5.044 5.044 0 011.379-1.506M23.743 76.472c.155-.902-.047-1.676-.607-2.32a2.637 2.637 0 00-.838-.654 2.546 2.546 0 00-.962-.258 2.567 2.567 0 00-.99.138 2.75 2.75 0 00-.922.538c-.29.252-.514.534-.673.846a2.575 2.575 0 00.355 2.87c.526.606 1.257.927 2.192.963l-2.243 1.946-.236-.134a7.415 7.415 0 01-.931-.615 5.201 5.201 0 01-.719-.682 4.971 4.971 0 01-.969-1.693 4.997 4.997 0 01-.255-1.914c.04-.65.205-1.287.494-1.911a4.958 4.958 0 011.275-1.666 4.936 4.936 0 011.814-1.024 5.079 5.079 0 011.938-.207 5.094 5.094 0 011.854.534c.593.3 1.11.703 1.552 1.213.252.29.469.602.651.935.182.333.343.71.483 1.132l-2.263 1.963zM27.631 82.97l.916-3.279-2.763 1.989 1.847 1.29zm-.546 1.945l-2.939-2.053-1.432 1.045-2.193-1.532 8.538-5.808 2.246 1.568-2.515 10.016-2.193-1.532.488-1.704zM37.01 81.065l-2.858 6.963 2.782 1.142-.807 1.966-5.103-2.095 3.665-8.929zM45.307 85.544l-2.92-.612-.33 1.578 2.756.578-.436 2.08-2.756-.578-.341 1.629 2.919.611-.436 2.08-5.374-1.126 1.979-9.446 5.374 1.126zM46.951 93.415l-.341-9.645 2.507-.09 4.84 5.734-.21-5.897 2.495-.089.342 9.645-2.495.089-4.84-5.733.21 5.897zM61.908 89.53l.548-.178c.414-.135.762-.32 1.044-.556.282-.236.497-.503.646-.803.15-.3.232-.626.247-.977a3.048 3.048 0 00-.159-1.085 2.973 2.973 0 00-.516-.963 2.482 2.482 0 00-.783-.647 2.497 2.497 0 00-.996-.267 3.083 3.083 0 00-1.158.163l-.548.178 1.675 5.135zm-4.72-6.377l3.53-1.15a4.38 4.38 0 011.881-.197c.63.073 1.218.251 1.764.535a4.91 4.91 0 011.443 1.145c.417.479.724 1.022.923 1.63.196.601.269 1.217.219 1.848a4.886 4.886 0 01-.483 1.78 4.977 4.977 0 01-1.106 1.478 4.407 4.407 0 01-1.648.955l-3.529 1.152-2.993-9.176zM73.122 82.681l-2.677-2.103.777 3.314 1.9-1.21zm1.586 1.25l-3.022 1.927.416 1.724-2.256 1.438-2.09-10.113 2.31-1.473 8.285 6.164-2.256 1.438-1.387-1.105zM78.034 76.338l.325-.344c.34-.36.525-.707.558-1.04.032-.333-.092-.631-.371-.894-.28-.264-.584-.37-.915-.317-.33.052-.665.258-1.005.618l-.325.345 1.733 1.632zm7.668-.354l-2.142 2.273-4.343-.804L81.918 80l-1.72 1.826-7.024-6.62 2.678-2.84c.368-.392.748-.679 1.138-.863.39-.183.773-.276 1.15-.278a2.73 2.73 0 011.094.221c.351.15.676.365.974.646.534.503.846 1.04.935 1.61.09.572-.044 1.164-.4 1.779l4.96.504zM83.37 70.11c.643.265 1.272.56 1.89.88 3.302-5.924 5.06-12.62 5.06-19.588 0-6.67-1.61-13.09-4.643-18.823-.58.383-1.186.723-1.784 1.08 2.84 5.409 4.347 11.46 4.347 17.743 0 6.659-1.692 13.058-4.87 18.707M16.535 69.936c-3.116-5.607-4.775-11.943-4.775-18.534 0-6.462 1.594-12.68 4.593-18.204-.681-.185-1.34-.438-1.93-.81-3.098 5.78-4.743 12.27-4.743 19.014 0 7.065 1.805 13.852 5.196 19.836.57-.41 1.097-.879 1.659-1.302" fill="#FFF"/><g><path fill="#FFF" d="M35.489 42.4h29.12v24.32h-29.12z"/><path fill="#9AD1F7" d="M35.489 34.72h29.12v7.68h-29.12z"/><g fill="#000" fill-rule="nonzero"><path d="M65.76 33.6v34.24h-31.2V33.6h31.2zm-1.44 1.44H36V66.4h28.32V35.04z"/><path d="M65.409 41.44v1.76h-30.88v-1.76zM65.169 62.96v1.28h-30.4v-1.28z"/><path d="M42.289 38.96v6.88h-1.6v-6.88zM59.569 38.96v6.88h-1.6v-6.88z"/></g><path d="M49.502 57.371v-1.46h-2.148l1.1-1.03c.34-.323.589-.638.744-.946.155-.308.233-.644.233-1.008a2.263 2.263 0 00-.73-1.698 2.45 2.45 0 00-.814-.493 2.905 2.905 0 00-1.025-.176c-.376 0-.72.062-1.034.185-.314.123-.586.299-.814.528a2.395 2.395 0 00-.533.818c-.126.317-.189.669-.189 1.056h1.883a2.16 2.16 0 01-.026-.281c0-.23.066-.42.198-.572.132-.153.315-.23.55-.23a.73.73 0 01.321.067.731.731 0 01.378.427c.033.093.049.19.049.29 0 .094-.015.208-.044.343-.03.135-.104.311-.225.528-.12.217-.303.483-.55.797-.246.313-.586.696-1.02 1.148l-1.646 1.707h5.342zm4.074.185c.422 0 .807-.054 1.153-.163.346-.108.64-.264.88-.466.24-.203.427-.448.559-.735.132-.287.198-.61.198-.968 0-.34-.06-.654-.176-.942a2.215 2.215 0 00-.484-.739 2.215 2.215 0 00-.74-.484 2.445 2.445 0 00-.932-.176c-.094 0-.185.005-.273.013l-.29.031.114-.73h2.297v-1.461h-3.476L51.85 54.3a3.017 3.017 0 011.24-.273c.447 0 .808.101 1.083.304a.943.943 0 01.414.796.928.928 0 01-.308.709c-.205.19-.484.286-.836.286-.276 0-.566-.066-.871-.198a3.542 3.542 0 01-.898-.577l-.255 1.62c.317.199.656.347 1.016.444.361.097.741.145 1.14.145z" fill="#000" fill-rule="nonzero"/></g></g></svg>